{
	"asset":{
		"generator":"Khronos glTF Blender I/O v3.5.30",
		"version":"2.0"
	},
	"scene":0,
	"scenes":[
		{
			"name":"Scene",
			"nodes":[
				13
			]
		}
	],
	"nodes":[
		{
			"name":"Bone.003",
			"translation":[
				0,
				2.865349292755127,
				0
			]
		},
		{
			"name":"Bone.008",
			"rotation":[
				-5.7614677473338816e-08,
				-1.3822409528074786e-07,
				-2.1535858252264006e-07,
				1
			],
			"scale":[
				1,
				0.9999999403953552,
				0.9999998807907104
			],
			"translation":[
				3.5551056498661637e-07,
				2.213510751724243,
				-1.7136335372924805e-07
			]
		},
		{
			"children":[
				1
			],
			"name":"Bone.006",
			"rotation":[
				2.9598597350855016e-08,
				3.9381126137882916e-10,
				5.572928785113618e-10,
				1
			],
			"scale":[
				1,
				1,
				0.9999999403953552
			],
			"translation":[
				5.531401257030666e-07,
				2.213510751724243,
				-2.384185791015625e-07
			]
		},
		{
			"children":[
				2
			],
			"name":"Bone.007",
			"rotation":[
				-3.004970494657755e-08,
				6.965820364968067e-09,
				-4.592948243953288e-09,
				1
			],
			"scale":[
				1,
				1,
				0.9999999403953552
			],
			"translation":[
				-1.792668626876548e-07,
				2.213510513305664,
				-5.960464477539063e-08
			]
		},
		{
			"children":[
				3
			],
			"name":"Bone.004",
			"rotation":[
				-0.1530655473470688,
				0.15622113645076752,
				-0.6969577074050903,
				0.682946503162384
			],
			"scale":[
				1,
				0.9999999403953552,
				0.9999999403953552
			],
			"translation":[
				0,
				2.865349292755127,
				0
			]
		},
		{
			"name":"Bone.011",
			"rotation":[
				8.342636079370865e-16,
				-4.884980884834215e-15,
				1.7763568394002505e-15,
				1
			],
			"scale":[
				1,
				1,
				1.0000001192092896
			],
			"translation":[
				-2.842170943040401e-14,
				1.8888213634490967,
				-1.1920928955078125e-07
			]
		},
		{
			"children":[
				5
			],
			"name":"Bone.009",
			"rotation":[
				8.342637138162049e-16,
				-4.440891569105034e-16,
				2.9256544467943135e-16,
				1
			],
			"scale":[
				1,
				1,
				1.0000001192092896
			],
			"translation":[
				0,
				1.888821005821228,
				5.960464477539063e-08
			]
		},
		{
			"children":[
				6
			],
			"name":"Bone.010",
			"rotation":[
				8.342637138162049e-16,
				7.946627356147928e-09,
				0,
				1
			],
			"scale":[
				1,
				1,
				1.0000001192092896
			],
			"translation":[
				-3.552713678800501e-15,
				1.8888213634490967,
				5.960463766996327e-08
			]
		},
		{
			"children":[
				7
			],
			"name":"Bone.005",
			"rotation":[
				-0.19377419352531433,
				-0.19377414882183075,
				0.6800379157066345,
				0.6800379157066345
			],
			"translation":[
				0,
				2.865349292755127,
				0
			]
		},
		{
			"children":[
				0,
				4,
				8
			],
			"name":"Bone.001",
			"translation":[
				0,
				3.1904399394989014,
				0
			]
		},
		{
			"children":[
				9
			],
			"name":"Bone.002",
			"translation":[
				0,
				3.1904399394989014,
				0
			]
		},
		{
			"children":[
				10
			],
			"name":"Bone"
		},
		{
			"mesh":0,
			"name":"Cube",
			"skin":0
		},
		{
			"children":[
				12,
				11
			],
			"name":"Armature"
		}
	],
	"animations":[
		{
			"channels":[
				{
					"sampler":0,
					"target":{
						"node":11,
						"path":"translation"
					}
				},
				{
					"sampler":1,
					"target":{
						"node":11,
						"path":"rotation"
					}
				},
				{
					"sampler":2,
					"target":{
						"node":11,
						"path":"scale"
					}
				},
				{
					"sampler":3,
					"target":{
						"node":10,
						"path":"translation"
					}
				},
				{
					"sampler":4,
					"target":{
						"node":10,
						"path":"rotation"
					}
				},
				{
					"sampler":5,
					"target":{
						"node":10,
						"path":"scale"
					}
				},
				{
					"sampler":6,
					"target":{
						"node":9,
						"path":"translation"
					}
				},
				{
					"sampler":7,
					"target":{
						"node":9,
						"path":"rotation"
					}
				},
				{
					"sampler":8,
					"target":{
						"node":9,
						"path":"scale"
					}
				},
				{
					"sampler":9,
					"target":{
						"node":0,
						"path":"translation"
					}
				},
				{
					"sampler":10,
					"target":{
						"node":0,
						"path":"rotation"
					}
				},
				{
					"sampler":11,
					"target":{
						"node":0,
						"path":"scale"
					}
				},
				{
					"sampler":12,
					"target":{
						"node":4,
						"path":"translation"
					}
				},
				{
					"sampler":13,
					"target":{
						"node":4,
						"path":"rotation"
					}
				},
				{
					"sampler":14,
					"target":{
						"node":4,
						"path":"scale"
					}
				},
				{
					"sampler":15,
					"target":{
						"node":3,
						"path":"translation"
					}
				},
				{
					"sampler":16,
					"target":{
						"node":3,
						"path":"rotation"
					}
				},
				{
					"sampler":17,
					"target":{
						"node":3,
						"path":"scale"
					}
				},
				{
					"sampler":18,
					"target":{
						"node":2,
						"path":"translation"
					}
				},
				{
					"sampler":19,
					"target":{
						"node":2,
						"path":"rotation"
					}
				},
				{
					"sampler":20,
					"target":{
						"node":2,
						"path":"scale"
					}
				},
				{
					"sampler":21,
					"target":{
						"node":1,
						"path":"translation"
					}
				},
				{
					"sampler":22,
					"target":{
						"node":1,
						"path":"rotation"
					}
				},
				{
					"sampler":23,
					"target":{
						"node":1,
						"path":"scale"
					}
				},
				{
					"sampler":24,
					"target":{
						"node":8,
						"path":"translation"
					}
				},
				{
					"sampler":25,
					"target":{
						"node":8,
						"path":"rotation"
					}
				},
				{
					"sampler":26,
					"target":{
						"node":8,
						"path":"scale"
					}
				},
				{
					"sampler":27,
					"target":{
						"node":7,
						"path":"translation"
					}
				},
				{
					"sampler":28,
					"target":{
						"node":7,
						"path":"rotation"
					}
				},
				{
					"sampler":29,
					"target":{
						"node":7,
						"path":"scale"
					}
				},
				{
					"sampler":30,
					"target":{
						"node":6,
						"path":"translation"
					}
				},
				{
					"sampler":31,
					"target":{
						"node":6,
						"path":"rotation"
					}
				},
				{
					"sampler":32,
					"target":{
						"node":6,
						"path":"scale"
					}
				},
				{
					"sampler":33,
					"target":{
						"node":5,
						"path":"translation"
					}
				},
				{
					"sampler":34,
					"target":{
						"node":5,
						"path":"rotation"
					}
				},
				{
					"sampler":35,
					"target":{
						"node":5,
						"path":"scale"
					}
				}
			],
			"name":"TestingAnim",
			"samplers":[
				{
					"input":8,
					"interpolation":"LINEAR",
					"output":9
				},
				{
					"input":8,
					"interpolation":"LINEAR",
					"output":10
				},
				{
					"input":8,
					"interpolation":"LINEAR",
					"output":11
				},
				{
					"input":8,
					"interpolation":"LINEAR",
					"output":12
				},
				{
					"input":8,
					"interpolation":"LINEAR",
					"output":13
				},
				{
					"input":8,
					"interpolation":"LINEAR",
					"output":14
				},
				{
					"input":8,
					"interpolation":"LINEAR",
					"output":15
				},
				{
					"input":8,
					"interpolation":"LINEAR",
					"output":16
				},
				{
					"input":8,
					"interpolation":"LINEAR",
					"output":17
				},
				{
					"input":8,
					"interpolation":"LINEAR",
					"output":18
				},
				{
					"input":8,
					"interpolation":"LINEAR",
					"output":19
				},
				{
					"input":8,
					"interpolation":"LINEAR",
					"output":20
				},
				{
					"input":8,
					"interpolation":"LINEAR",
					"output":21
				},
				{
					"input":8,
					"interpolation":"LINEAR",
					"output":22
				},
				{
					"input":8,
					"interpolation":"LINEAR",
					"output":23
				},
				{
					"input":8,
					"interpolation":"LINEAR",
					"output":24
				},
				{
					"input":8,
					"interpolation":"LINEAR",
					"output":25
				},
				{
					"input":8,
					"interpolation":"LINEAR",
					"output":26
				},
				{
					"input":8,
					"interpolation":"LINEAR",
					"output":27
				},
				{
					"input":8,
					"interpolation":"LINEAR",
					"output":28
				},
				{
					"input":8,
					"interpolation":"LINEAR",
					"output":29
				},
				{
					"input":8,
					"interpolation":"LINEAR",
					"output":30
				},
				{
					"input":8,
					"interpolation":"LINEAR",
					"output":31
				},
				{
					"input":8,
					"interpolation":"LINEAR",
					"output":32
				},
				{
					"input":8,
					"interpolation":"LINEAR",
					"output":33
				},
				{
					"input":8,
					"interpolation":"LINEAR",
					"output":34
				},
				{
					"input":8,
					"interpolation":"LINEAR",
					"output":35
				},
				{
					"input":8,
					"interpolation":"LINEAR",
					"output":36
				},
				{
					"input":8,
					"interpolation":"LINEAR",
					"output":37
				},
				{
					"input":8,
					"interpolation":"LINEAR",
					"output":38
				},
				{
					"input":8,
					"interpolation":"LINEAR",
					"output":39
				},
				{
					"input":8,
					"interpolation":"LINEAR",
					"output":40
				},
				{
					"input":8,
					"interpolation":"LINEAR",
					"output":41
				},
				{
					"input":8,
					"interpolation":"LINEAR",
					"output":42
				},
				{
					"input":8,
					"interpolation":"LINEAR",
					"output":43
				},
				{
					"input":8,
					"interpolation":"LINEAR",
					"output":44
				}
			]
		}
	],
	"meshes":[
		{
			"name":"Cube.001",
			"primitives":[
				{
					"attributes":{
						"POSITION":0,
						"TEXCOORD_0":1,
						"NORMAL":2,
						"TANGENT":3,
						"JOINTS_0":4,
						"WEIGHTS_0":5
					},
					"indices":6
				}
			]
		}
	],
	"skins":[
		{
			"inverseBindMatrices":7,
			"joints":[
				11,
				10,
				9,
				0,
				4,
				3,
				2,
				1,
				8,
				7,
				6,
				5
			],
			"name":"Armature"
		}
	],
	"accessors":[
		{
			"bufferView":0,
			"componentType":5126,
			"count":150,
			"max":[
				8.308311462402344,
				13.269287109375,
				1.2576191425323486
			],
			"min":[
				-6.643929958343506,
				-0.007659912109375,
				-5.611320495605469
			],
			"type":"VEC3"
		},
		{
			"bufferView":1,
			"componentType":5126,
			"count":150,
			"type":"VEC2"
		},
		{
			"bufferView":2,
			"componentType":5126,
			"count":150,
			"type":"VEC3"
		},
		{
			"bufferView":3,
			"componentType":5126,
			"count":150,
			"type":"VEC4"
		},
		{
			"bufferView":4,
			"componentType":5121,
			"count":150,
			"type":"VEC4"
		},
		{
			"bufferView":5,
			"componentType":5126,
			"count":150,
			"type":"VEC4"
		},
		{
			"bufferView":6,
			"componentType":5123,
			"count":324,
			"type":"SCALAR"
		},
		{
			"bufferView":7,
			"componentType":5126,
			"count":12,
			"type":"MAT4"
		},
		{
			"bufferView":8,
			"componentType":5126,
			"count":80,
			"max":[
				1.3333333333333333
			],
			"min":[
				0.016666666666666666
			],
			"type":"SCALAR"
		},
		{
			"bufferView":9,
			"componentType":5126,
			"count":80,
			"type":"VEC3"
		},
		{
			"bufferView":10,
			"componentType":5126,
			"count":80,
			"type":"VEC4"
		},
		{
			"bufferView":11,
			"componentType":5126,
			"count":80,
			"type":"VEC3"
		},
		{
			"bufferView":12,
			"componentType":5126,
			"count":80,
			"type":"VEC3"
		},
		{
			"bufferView":13,
			"componentType":5126,
			"count":80,
			"type":"VEC4"
		},
		{
			"bufferView":14,
			"componentType":5126,
			"count":80,
			"type":"VEC3"
		},
		{
			"bufferView":15,
			"componentType":5126,
			"count":80,
			"type":"VEC3"
		},
		{
			"bufferView":16,
			"componentType":5126,
			"count":80,
			"type":"VEC4"
		},
		{
			"bufferView":17,
			"componentType":5126,
			"count":80,
			"type":"VEC3"
		},
		{
			"bufferView":18,
			"componentType":5126,
			"count":80,
			"type":"VEC3"
		},
		{
			"bufferView":19,
			"componentType":5126,
			"count":80,
			"type":"VEC4"
		},
		{
			"bufferView":20,
			"componentType":5126,
			"count":80,
			"type":"VEC3"
		},
		{
			"bufferView":21,
			"componentType":5126,
			"count":80,
			"type":"VEC3"
		},
		{
			"bufferView":22,
			"componentType":5126,
			"count":80,
			"type":"VEC4"
		},
		{
			"bufferView":23,
			"componentType":5126,
			"count":80,
			"type":"VEC3"
		},
		{
			"bufferView":24,
			"componentType":5126,
			"count":80,
			"type":"VEC3"
		},
		{
			"bufferView":25,
			"componentType":5126,
			"count":80,
			"type":"VEC4"
		},
		{
			"bufferView":26,
			"componentType":5126,
			"count":80,
			"type":"VEC3"
		},
		{
			"bufferView":27,
			"componentType":5126,
			"count":80,
			"type":"VEC3"
		},
		{
			"bufferView":28,
			"componentType":5126,
			"count":80,
			"type":"VEC4"
		},
		{
			"bufferView":29,
			"componentType":5126,
			"count":80,
			"type":"VEC3"
		},
		{
			"bufferView":30,
			"componentType":5126,
			"count":80,
			"type":"VEC3"
		},
		{
			"bufferView":31,
			"componentType":5126,
			"count":80,
			"type":"VEC4"
		},
		{
			"bufferView":32,
			"componentType":5126,
			"count":80,
			"type":"VEC3"
		},
		{
			"bufferView":33,
			"componentType":5126,
			"count":80,
			"type":"VEC3"
		},
		{
			"bufferView":34,
			"componentType":5126,
			"count":80,
			"type":"VEC4"
		},
		{
			"bufferView":35,
			"componentType":5126,
			"count":80,
			"type":"VEC3"
		},
		{
			"bufferView":36,
			"componentType":5126,
			"count":80,
			"type":"VEC3"
		},
		{
			"bufferView":37,
			"componentType":5126,
			"count":80,
			"type":"VEC4"
		},
		{
			"bufferView":38,
			"componentType":5126,
			"count":80,
			"type":"VEC3"
		},
		{
			"bufferView":39,
			"componentType":5126,
			"count":80,
			"type":"VEC3"
		},
		{
			"bufferView":40,
			"componentType":5126,
			"count":80,
			"type":"VEC4"
		},
		{
			"bufferView":41,
			"componentType":5126,
			"count":80,
			"type":"VEC3"
		},
		{
			"bufferView":42,
			"componentType":5126,
			"count":80,
			"type":"VEC3"
		},
		{
			"bufferView":43,
			"componentType":5126,
			"count":80,
			"type":"VEC4"
		},
		{
			"bufferView":44,
			"componentType":5126,
			"count":80,
			"type":"VEC3"
		}
	],
	"bufferViews":[
		{
			"buffer":0,
			"byteLength":1800,
			"byteOffset":0,
			"target":34962
		},
		{
			"buffer":0,
			"byteLength":1200,
			"byteOffset":1800,
			"target":34962
		},
		{
			"buffer":0,
			"byteLength":1800,
			"byteOffset":3000,
			"target":34962
		},
		{
			"buffer":0,
			"byteLength":2400,
			"byteOffset":4800,
			"target":34962
		},
		{
			"buffer":0,
			"byteLength":600,
			"byteOffset":7200,
			"target":34962
		},
		{
			"buffer":0,
			"byteLength":2400,
			"byteOffset":7800,
			"target":34962
		},
		{
			"buffer":0,
			"byteLength":648,
			"byteOffset":10200,
			"target":34963
		},
		{
			"buffer":0,
			"byteLength":768,
			"byteOffset":10848
		},
		{
			"buffer":0,
			"byteLength":320,
			"byteOffset":11616
		},
		{
			"buffer":0,
			"byteLength":960,
			"byteOffset":11936
		},
		{
			"buffer":0,
			"byteLength":1280,
			"byteOffset":12896
		},
		{
			"buffer":0,
			"byteLength":960,
			"byteOffset":14176
		},
		{
			"buffer":0,
			"byteLength":960,
			"byteOffset":15136
		},
		{
			"buffer":0,
			"byteLength":1280,
			"byteOffset":16096
		},
		{
			"buffer":0,
			"byteLength":960,
			"byteOffset":17376
		},
		{
			"buffer":0,
			"byteLength":960,
			"byteOffset":18336
		},
		{
			"buffer":0,
			"byteLength":1280,
			"byteOffset":19296
		},
		{
			"buffer":0,
			"byteLength":960,
			"byteOffset":20576
		},
		{
			"buffer":0,
			"byteLength":960,
			"byteOffset":21536
		},
		{
			"buffer":0,
			"byteLength":1280,
			"byteOffset":22496
		},
		{
			"buffer":0,
			"byteLength":960,
			"byteOffset":23776
		},
		{
			"buffer":0,
			"byteLength":960,
			"byteOffset":24736
		},
		{
			"buffer":0,
			"byteLength":1280,
			"byteOffset":25696
		},
		{
			"buffer":0,
			"byteLength":960,
			"byteOffset":26976
		},
		{
			"buffer":0,
			"byteLength":960,
			"byteOffset":27936
		},
		{
			"buffer":0,
			"byteLength":1280,
			"byteOffset":28896
		},
		{
			"buffer":0,
			"byteLength":960,
			"byteOffset":30176
		},
		{
			"buffer":0,
			"byteLength":960,
			"byteOffset":31136
		},
		{
			"buffer":0,
			"byteLength":1280,
			"byteOffset":32096
		},
		{
			"buffer":0,
			"byteLength":960,
			"byteOffset":33376
		},
		{
			"buffer":0,
			"byteLength":960,
			"byteOffset":34336
		},
		{
			"buffer":0,
			"byteLength":1280,
			"byteOffset":35296
		},
		{
			"buffer":0,
			"byteLength":960,
			"byteOffset":36576
		},
		{
			"buffer":0,
			"byteLength":960,
			"byteOffset":37536
		},
		{
			"buffer":0,
			"byteLength":1280,
			"byteOffset":38496
		},
		{
			"buffer":0,
			"byteLength":960,
			"byteOffset":39776
		},
		{
			"buffer":0,
			"byteLength":960,
			"byteOffset":40736
		},
		{
			"buffer":0,
			"byteLength":1280,
			"byteOffset":41696
		},
		{
			"buffer":0,
			"byteLength":960,
			"byteOffset":42976
		},
		{
			"buffer":0,
			"byteLength":960,
			"byteOffset":43936
		},
		{
			"buffer":0,
			"byteLength":1280,
			"byteOffset":44896
		},
		{
			"buffer":0,
			"byteLength":960,
			"byteOffset":46176
		},
		{
			"buffer":0,
			"byteLength":960,
			"byteOffset":47136
		},
		{
			"buffer":0,
			"byteLength":1280,
			"byteOffset":48096
		},
		{
			"buffer":0,
			"byteLength":960,
			"byteOffset":49376
		}
	],
	"buffers":[
		{
			"byteLength":50336,
			"uri":"data:application/octet-stream;base64,"
		}
	]
}
