{
	"asset":{
		"generator":"Khronos glTF Blender I/O v3.5.30",
		"version":"2.0"
	},
	"scene":0,
	"scenes":[
		{
			"name":"Scene",
			"nodes":[
				0,
				1,
				2,
				3,
				4,
				5,
				6,
				7
			]
		}
	],
	"nodes":[
		{
			"mesh":0,
			"name":"Band",
			"rotation":[
				0,
				1,
				0,
				1.6292068494294654e-07
			],
			"scale":[
				0.5725324153900146,
				0.5725324153900146,
				0.5725324153900146
			]
		},
		{
			"mesh":1,
			"name":"Body",
			"rotation":[
				0,
				1,
				0,
				1.6292068494294654e-07
			],
			"scale":[
				0.5725324153900146,
				0.5725324153900146,
				0.5725324153900146
			]
		},
		{
			"mesh":2,
			"name":"Mask",
			"rotation":[
				0,
				1,
				0,
				1.6292068494294654e-07
			],
			"scale":[
				0.5189571976661682,
				0.5725324153900146,
				0.5725324153900146
			]
		},
		{
			"mesh":3,
			"name":"Pants",
			"rotation":[
				0,
				1,
				0,
				1.6292068494294654e-07
			],
			"scale":[
				0.5725324153900146,
				0.5725324153900146,
				0.5725324153900146
			]
		},
		{
			"mesh":4,
			"name":"Ribbon",
			"rotation":[
				0,
				1,
				0,
				1.6292068494294654e-07
			],
			"scale":[
				0.5725324153900146,
				0.5725324153900146,
				0.5725324153900146
			]
		},
		{
			"mesh":5,
			"name":"Slippers",
			"rotation":[
				0,
				1,
				0,
				1.6292068494294654e-07
			],
			"scale":[
				0.5725324153900146,
				0.5725324153900146,
				0.5725324153900146
			]
		},
		{
			"mesh":6,
			"name":"Shirt",
			"rotation":[
				0,
				1,
				0,
				1.6292068494294654e-07
			],
			"scale":[
				0.5725324153900146,
				0.5725324153900146,
				0.5725324153900146
			]
		},
		{
			"mesh":7,
			"name":"Hair",
			"rotation":[
				0,
				1,
				0,
				1.6292068494294654e-07
			],
			"scale":[
				0.5725324153900146,
				0.5725324153900146,
				0.5725324153900146
			]
		}
	],
	"meshes":[
		{
			"name":"Mesh",
			"primitives":[
				{
					"attributes":{
						"POSITION":0,
						"TEXCOORD_0":1,
						"NORMAL":2,
						"TANGENT":3
					},
					"indices":4
				}
			]
		},
		{
			"name":"Mesh",
			"primitives":[
				{
					"attributes":{
						"POSITION":5,
						"TEXCOORD_0":6,
						"NORMAL":7,
						"TANGENT":8
					},
					"indices":9
				}
			]
		},
		{
			"name":"Mesh",
			"primitives":[
				{
					"attributes":{
						"POSITION":10,
						"TEXCOORD_0":11,
						"NORMAL":12,
						"TANGENT":13
					},
					"indices":14
				}
			]
		},
		{
			"name":"Mesh",
			"primitives":[
				{
					"attributes":{
						"POSITION":15,
						"TEXCOORD_0":16,
						"NORMAL":17,
						"TANGENT":18
					},
					"indices":19
				}
			]
		},
		{
			"name":"Ribbon",
			"primitives":[
				{
					"attributes":{
						"POSITION":20,
						"TEXCOORD_0":21,
						"NORMAL":22,
						"TANGENT":23
					},
					"indices":24
				}
			]
		},
		{
			"name":"Mesh",
			"primitives":[
				{
					"attributes":{
						"POSITION":25,
						"TEXCOORD_0":26,
						"NORMAL":27,
						"TANGENT":28
					},
					"indices":29
				}
			]
		},
		{
			"name":"Mesh",
			"primitives":[
				{
					"attributes":{
						"POSITION":30,
						"TEXCOORD_0":31,
						"NORMAL":32,
						"TANGENT":33
					},
					"indices":34
				}
			]
		},
		{
			"name":"Hair.001",
			"primitives":[
				{
					"attributes":{
						"POSITION":35,
						"TEXCOORD_0":36,
						"NORMAL":37,
						"TANGENT":38
					},
					"indices":39
				}
			]
		}
	],
	"accessors":[
		{
			"bufferView":0,
			"componentType":5126,
			"count":89,
			"max":[
				0.7255660891532898,
				0.5684908628463745,
				0.22450225055217743
			],
			"min":[
				0.39186519384384155,
				0.40258970856666565,
				-0.10833293199539185
			],
			"type":"VEC3"
		},
		{
			"bufferView":1,
			"componentType":5126,
			"count":89,
			"type":"VEC2"
		},
		{
			"bufferView":2,
			"componentType":5126,
			"count":89,
			"type":"VEC3"
		},
		{
			"bufferView":3,
			"componentType":5126,
			"count":89,
			"type":"VEC4"
		},
		{
			"bufferView":4,
			"componentType":5123,
			"count":324,
			"type":"SCALAR"
		},
		{
			"bufferView":5,
			"componentType":5126,
			"count":3522,
			"max":[
				0.8102700114250183,
				7.025205135345459,
				0.8360509872436523
			],
			"min":[
				-0.8102699518203735,
				0.041611749678850174,
				-0.8034824728965759
			],
			"type":"VEC3"
		},
		{
			"bufferView":6,
			"componentType":5126,
			"count":3522,
			"type":"VEC2"
		},
		{
			"bufferView":7,
			"componentType":5126,
			"count":3522,
			"type":"VEC3"
		},
		{
			"bufferView":8,
			"componentType":5126,
			"count":3522,
			"type":"VEC4"
		},
		{
			"bufferView":9,
			"componentType":5123,
			"count":12936,
			"type":"SCALAR"
		},
		{
			"bufferView":10,
			"componentType":5126,
			"count":659,
			"max":[
				0.8422654867172241,
				6.846085071563721,
				0.90313720703125
			],
			"min":[
				-0.8362129330635071,
				5.313488960266113,
				0.34999164938926697
			],
			"type":"VEC3"
		},
		{
			"bufferView":11,
			"componentType":5126,
			"count":659,
			"type":"VEC2"
		},
		{
			"bufferView":12,
			"componentType":5126,
			"count":659,
			"type":"VEC3"
		},
		{
			"bufferView":13,
			"componentType":5126,
			"count":659,
			"type":"VEC4"
		},
		{
			"bufferView":14,
			"componentType":5123,
			"count":2304,
			"type":"SCALAR"
		},
		{
			"bufferView":15,
			"componentType":5126,
			"count":882,
			"max":[
				1.1801337003707886,
				3.0235044956207275,
				0.7155611515045166
			],
			"min":[
				-1.1801337003707886,
				0.6815610527992249,
				-0.6638267636299133
			],
			"type":"VEC3"
		},
		{
			"bufferView":16,
			"componentType":5126,
			"count":882,
			"type":"VEC2"
		},
		{
			"bufferView":17,
			"componentType":5126,
			"count":882,
			"type":"VEC3"
		},
		{
			"bufferView":18,
			"componentType":5126,
			"count":882,
			"type":"VEC4"
		},
		{
			"bufferView":19,
			"componentType":5123,
			"count":3048,
			"type":"SCALAR"
		},
		{
			"bufferView":20,
			"componentType":5126,
			"count":178,
			"max":[
				0.7679065465927124,
				0.4799189567565918,
				-0.10881662368774414
			],
			"min":[
				0.3520933985710144,
				0.4799189567565918,
				-1.338144302368164
			],
			"type":"VEC3"
		},
		{
			"bufferView":21,
			"componentType":5126,
			"count":178,
			"type":"VEC2"
		},
		{
			"bufferView":22,
			"componentType":5126,
			"count":178,
			"type":"VEC3"
		},
		{
			"bufferView":23,
			"componentType":5126,
			"count":178,
			"type":"VEC4"
		},
		{
			"bufferView":24,
			"componentType":5123,
			"count":264,
			"type":"SCALAR"
		},
		{
			"bufferView":25,
			"componentType":5126,
			"count":1728,
			"max":[
				0.7520222663879395,
				0.23459094762802124,
				0.6597510576248169
			],
			"min":[
				-0.7520222663879395,
				0.01024158950895071,
				-0.1296636164188385
			],
			"type":"VEC3"
		},
		{
			"bufferView":26,
			"componentType":5126,
			"count":1728,
			"type":"VEC2"
		},
		{
			"bufferView":27,
			"componentType":5126,
			"count":1728,
			"type":"VEC3"
		},
		{
			"bufferView":28,
			"componentType":5126,
			"count":1728,
			"type":"VEC4"
		},
		{
			"bufferView":29,
			"componentType":5123,
			"count":6672,
			"type":"SCALAR"
		},
		{
			"bufferView":30,
			"componentType":5126,
			"count":1862,
			"max":[
				3.131331443786621,
				5.09016752243042,
				0.9379112720489502
			],
			"min":[
				-3.131331443786621,
				1.4821858406066895,
				-0.8398270606994629
			],
			"type":"VEC3"
		},
		{
			"bufferView":31,
			"componentType":5126,
			"count":1862,
			"type":"VEC2"
		},
		{
			"bufferView":32,
			"componentType":5126,
			"count":1862,
			"type":"VEC3"
		},
		{
			"bufferView":33,
			"componentType":5126,
			"count":1862,
			"type":"VEC4"
		},
		{
			"bufferView":34,
			"componentType":5123,
			"count":6624,
			"type":"SCALAR"
		},
		{
			"bufferView":35,
			"componentType":5126,
			"count":2734,
			"max":[
				1.428255319595337,
				7.291688442230225,
				0.9596763849258423
			],
			"min":[
				-1.3847042322158813,
				4.845005512237549,
				-1.2547355890274048
			],
			"type":"VEC3"
		},
		{
			"bufferView":36,
			"componentType":5126,
			"count":2734,
			"type":"VEC2"
		},
		{
			"bufferView":37,
			"componentType":5126,
			"count":2734,
			"type":"VEC3"
		},
		{
			"bufferView":38,
			"componentType":5126,
			"count":2734,
			"type":"VEC4"
		},
		{
			"bufferView":39,
			"componentType":5123,
			"count":9240,
			"type":"SCALAR"
		}
	],
	"bufferViews":[
		{
			"buffer":0,
			"byteLength":1068,
			"byteOffset":0,
			"target":34962
		},
		{
			"buffer":0,
			"byteLength":712,
			"byteOffset":1068,
			"target":34962
		},
		{
			"buffer":0,
			"byteLength":1068,
			"byteOffset":1780,
			"target":34962
		},
		{
			"buffer":0,
			"byteLength":1424,
			"byteOffset":2848,
			"target":34962
		},
		{
			"buffer":0,
			"byteLength":648,
			"byteOffset":4272,
			"target":34963
		},
		{
			"buffer":0,
			"byteLength":42264,
			"byteOffset":4920,
			"target":34962
		},
		{
			"buffer":0,
			"byteLength":28176,
			"byteOffset":47184,
			"target":34962
		},
		{
			"buffer":0,
			"byteLength":42264,
			"byteOffset":75360,
			"target":34962
		},
		{
			"buffer":0,
			"byteLength":56352,
			"byteOffset":117624,
			"target":34962
		},
		{
			"buffer":0,
			"byteLength":25872,
			"byteOffset":173976,
			"target":34963
		},
		{
			"buffer":0,
			"byteLength":7908,
			"byteOffset":199848,
			"target":34962
		},
		{
			"buffer":0,
			"byteLength":5272,
			"byteOffset":207756,
			"target":34962
		},
		{
			"buffer":0,
			"byteLength":7908,
			"byteOffset":213028,
			"target":34962
		},
		{
			"buffer":0,
			"byteLength":10544,
			"byteOffset":220936,
			"target":34962
		},
		{
			"buffer":0,
			"byteLength":4608,
			"byteOffset":231480,
			"target":34963
		},
		{
			"buffer":0,
			"byteLength":10584,
			"byteOffset":236088,
			"target":34962
		},
		{
			"buffer":0,
			"byteLength":7056,
			"byteOffset":246672,
			"target":34962
		},
		{
			"buffer":0,
			"byteLength":10584,
			"byteOffset":253728,
			"target":34962
		},
		{
			"buffer":0,
			"byteLength":14112,
			"byteOffset":264312,
			"target":34962
		},
		{
			"buffer":0,
			"byteLength":6096,
			"byteOffset":278424,
			"target":34963
		},
		{
			"buffer":0,
			"byteLength":2136,
			"byteOffset":284520,
			"target":34962
		},
		{
			"buffer":0,
			"byteLength":1424,
			"byteOffset":286656,
			"target":34962
		},
		{
			"buffer":0,
			"byteLength":2136,
			"byteOffset":288080,
			"target":34962
		},
		{
			"buffer":0,
			"byteLength":2848,
			"byteOffset":290216,
			"target":34962
		},
		{
			"buffer":0,
			"byteLength":528,
			"byteOffset":293064,
			"target":34963
		},
		{
			"buffer":0,
			"byteLength":20736,
			"byteOffset":293592,
			"target":34962
		},
		{
			"buffer":0,
			"byteLength":13824,
			"byteOffset":314328,
			"target":34962
		},
		{
			"buffer":0,
			"byteLength":20736,
			"byteOffset":328152,
			"target":34962
		},
		{
			"buffer":0,
			"byteLength":27648,
			"byteOffset":348888,
			"target":34962
		},
		{
			"buffer":0,
			"byteLength":13344,
			"byteOffset":376536,
			"target":34963
		},
		{
			"buffer":0,
			"byteLength":22344,
			"byteOffset":389880,
			"target":34962
		},
		{
			"buffer":0,
			"byteLength":14896,
			"byteOffset":412224,
			"target":34962
		},
		{
			"buffer":0,
			"byteLength":22344,
			"byteOffset":427120,
			"target":34962
		},
		{
			"buffer":0,
			"byteLength":29792,
			"byteOffset":449464,
			"target":34962
		},
		{
			"buffer":0,
			"byteLength":13248,
			"byteOffset":479256,
			"target":34963
		},
		{
			"buffer":0,
			"byteLength":32808,
			"byteOffset":492504,
			"target":34962
		},
		{
			"buffer":0,
			"byteLength":21872,
			"byteOffset":525312,
			"target":34962
		},
		{
			"buffer":0,
			"byteLength":32808,
			"byteOffset":547184,
			"target":34962
		},
		{
			"buffer":0,
			"byteLength":43744,
			"byteOffset":579992,
			"target":34962
		},
		{
			"buffer":0,
			"byteLength":18480,
			"byteOffset":623736,
			"target":34963
		}
	],
	"buffers":[
		{
			"byteLength":642216,
			"uri":"data:application/octet-stream;base64,"
		}
	]
}
