{
	"asset":{
		"generator":"Khronos glTF Blender I/O v3.5.30",
		"version":"2.0"
	},
	"scene":0,
	"scenes":[
		{
			"name":"Scene",
			"nodes":[
				0,
				1
			]
		}
	],
	"nodes":[
		{
			"mesh":0,
			"name":"Flower",
			"scale":[
				0.6154280304908752,
				0.6154280304908752,
				0.6154280304908752
			],
			"translation":[
				0,
				-0.01197671890258789,
				0
			]
		},
		{
			"mesh":1,
			"name":"Stem",
			"translation":[
				0,
				-0.8102108240127563,
				0
			]
		}
	],
	"meshes":[
		{
			"name":"Plane.001",
			"primitives":[
				{
					"attributes":{
						"POSITION":0,
						"TEXCOORD_0":1,
						"NORMAL":2,
						"TANGENT":3
					},
					"indices":4
				}
			]
		},
		{
			"name":"Cylinder.001",
			"primitives":[
				{
					"attributes":{
						"POSITION":5,
						"TEXCOORD_0":6,
						"NORMAL":7,
						"TANGENT":8
					},
					"indices":9
				}
			]
		}
	],
	"accessors":[
		{
			"bufferView":0,
			"componentType":5126,
			"count":9,
			"max":[
				3.0172054767608643,
				2.3193044662475586,
				3.1098010540008545
			],
			"min":[
				-2.8479156494140625,
				0.05433471500873566,
				-2.7790865898132324
			],
			"type":"VEC3"
		},
		{
			"bufferView":1,
			"componentType":5126,
			"count":9,
			"type":"VEC2"
		},
		{
			"bufferView":2,
			"componentType":5126,
			"count":9,
			"type":"VEC3"
		},
		{
			"bufferView":3,
			"componentType":5126,
			"count":9,
			"type":"VEC4"
		},
		{
			"bufferView":4,
			"componentType":5123,
			"count":24,
			"type":"SCALAR"
		},
		{
			"bufferView":5,
			"componentType":5126,
			"count":42,
			"max":[
				0.047626279294490814,
				0.811745822429657,
				0.040513332933187485
			],
			"min":[
				-0.04762629047036171,
				-1.489897608757019,
				-0.05007723346352577
			],
			"type":"VEC3"
		},
		{
			"bufferView":6,
			"componentType":5126,
			"count":42,
			"type":"VEC2"
		},
		{
			"bufferView":7,
			"componentType":5126,
			"count":42,
			"type":"VEC3"
		},
		{
			"bufferView":8,
			"componentType":5126,
			"count":42,
			"type":"VEC4"
		},
		{
			"bufferView":9,
			"componentType":5123,
			"count":180,
			"type":"SCALAR"
		}
	],
	"bufferViews":[
		{
			"buffer":0,
			"byteLength":108,
			"byteOffset":0,
			"target":34962
		},
		{
			"buffer":0,
			"byteLength":72,
			"byteOffset":108,
			"target":34962
		},
		{
			"buffer":0,
			"byteLength":108,
			"byteOffset":180,
			"target":34962
		},
		{
			"buffer":0,
			"byteLength":144,
			"byteOffset":288,
			"target":34962
		},
		{
			"buffer":0,
			"byteLength":48,
			"byteOffset":432,
			"target":34963
		},
		{
			"buffer":0,
			"byteLength":504,
			"byteOffset":480,
			"target":34962
		},
		{
			"buffer":0,
			"byteLength":336,
			"byteOffset":984,
			"target":34962
		},
		{
			"buffer":0,
			"byteLength":504,
			"byteOffset":1320,
			"target":34962
		},
		{
			"buffer":0,
			"byteLength":672,
			"byteOffset":1824,
			"target":34962
		},
		{
			"buffer":0,
			"byteLength":360,
			"byteOffset":2496,
			"target":34963
		}
	],
	"buffers":[
		{
			"byteLength":2856,
			"uri":"data:application/octet-stream;base64,"
		}
	]
}
