{
	"asset":{
		"generator":"Khronos glTF Blender I/O v3.5.30",
		"version":"2.0"
	},
	"scene":0,
	"scenes":[
		{
			"name":"Scene",
			"nodes":[
				0
			]
		}
	],
	"nodes":[
		{
			"mesh":0,
			"name":"Icosphere"
		}
	],
	"materials":[
		{
			"doubleSided":true,
			"name":"CrackRock",
			"pbrMetallicRoughness":{}
		}
	],
	"meshes":[
		{
			"name":"Mesh",
			"primitives":[
				{
					"attributes":{
						"POSITION":0,
						"TEXCOORD_0":1,
						"NORMAL":2,
						"TANGENT":3
					},
					"indices":4,
					"material":0
				}
			]
		}
	],
	"accessors":[
		{
			"bufferView":0,
			"componentType":5126,
			"count":13722,
			"max":[
				1.0683010816574097,
				1.1727534532546997,
				1.1920419931411743
			],
			"min":[
				-0.9640126824378967,
				-1.1132841110229492,
				-1.3039356470108032
			],
			"type":"VEC3"
		},
		{
			"bufferView":1,
			"componentType":5126,
			"count":13722,
			"type":"VEC2"
		},
		{
			"bufferView":2,
			"componentType":5126,
			"count":13722,
			"type":"VEC3"
		},
		{
			"bufferView":3,
			"componentType":5126,
			"count":13722,
			"type":"VEC4"
		},
		{
			"bufferView":4,
			"componentType":5123,
			"count":60864,
			"type":"SCALAR"
		}
	],
	"bufferViews":[
		{
			"buffer":0,
			"byteLength":164664,
			"byteOffset":0,
			"target":34962
		},
		{
			"buffer":0,
			"byteLength":109776,
			"byteOffset":164664,
			"target":34962
		},
		{
			"buffer":0,
			"byteLength":164664,
			"byteOffset":274440,
			"target":34962
		},
		{
			"buffer":0,
			"byteLength":219552,
			"byteOffset":439104,
			"target":34962
		},
		{
			"buffer":0,
			"byteLength":121728,
			"byteOffset":658656,
			"target":34963
		}
	],
	"buffers":[
		{
			"byteLength":780384,
			"uri":"data:application/octet-stream;base64,"
		}
	]
}
