{
	"asset":{
		"generator":"Khronos glTF Blender I/O v3.5.30",
		"version":"2.0"
	},
	"scene":0,
	"scenes":[
		{
			"name":"Scene",
			"nodes":[
				0,
				1
			]
		}
	],
	"nodes":[
		{
			"mesh":0,
			"name":"Tree",
			"scale":[
				3,
				3,
				3
			]
		},
		{
			"mesh":1,
			"name":"Leaves",
			"scale":[
				3,
				3,
				3
			]
		}
	],
	"materials":[
		{
			"doubleSided":true,
			"name":"Material",
			"pbrMetallicRoughness":{
				"baseColorTexture":{
					"index":0
				},
				"metallicFactor":0,
				"roughnessFactor":0.5
			}
		},
		{
			"doubleSided":true,
			"name":"Material.001",
			"pbrMetallicRoughness":{
				"baseColorFactor":[
					0.5670410394668579,
					0.8000000715255737,
					0.32236048579216003,
					1
				],
				"baseColorTexture":{
					"index":1
				},
				"metallicFactor":0
			}
		}
	],
	"meshes":[
		{
			"name":"Cube",
			"primitives":[
				{
					"attributes":{
						"POSITION":0,
						"TEXCOORD_0":1,
						"NORMAL":2,
						"TANGENT":3
					},
					"indices":4,
					"material":0
				}
			]
		},
		{
			"name":"Mesh.005",
			"primitives":[
				{
					"attributes":{
						"POSITION":5,
						"TEXCOORD_0":6,
						"NORMAL":7,
						"TANGENT":8
					},
					"indices":9,
					"material":1
				}
			]
		}
	],
	"textures":[
		{
			"sampler":0,
			"source":0
		},
		{
			"sampler":0,
			"source":1
		}
	],
	"images":[
		{
			"bufferView":5,
			"mimeType":"image/jpeg",
			"name":"Bark012_1K_Color"
		},
		{
			"bufferView":11,
			"mimeType":"image/png",
			"name":"leaf2"
		}
	],
	"accessors":[
		{
			"bufferView":0,
			"componentType":5126,
			"count":3988,
			"max":[
				9.41866397857666,
				16.982521057128906,
				7.104211807250977
			],
			"min":[
				-8.054994583129883,
				-1.1112959384918213,
				-6.335371971130371
			],
			"type":"VEC3"
		},
		{
			"bufferView":1,
			"componentType":5126,
			"count":3988,
			"type":"VEC2"
		},
		{
			"bufferView":2,
			"componentType":5126,
			"count":3988,
			"type":"VEC3"
		},
		{
			"bufferView":3,
			"componentType":5126,
			"count":3988,
			"type":"VEC4"
		},
		{
			"bufferView":4,
			"componentType":5123,
			"count":15036,
			"type":"SCALAR"
		},
		{
			"bufferView":6,
			"componentType":5126,
			"count":5416,
			"max":[
				11.136486053466797,
				18.170536041259766,
				9.200467109680176
			],
			"min":[
				-9.608460426330566,
				-0.8332208395004272,
				-8.237009048461914
			],
			"type":"VEC3"
		},
		{
			"bufferView":7,
			"componentType":5126,
			"count":5416,
			"type":"VEC2"
		},
		{
			"bufferView":8,
			"componentType":5126,
			"count":5416,
			"type":"VEC3"
		},
		{
			"bufferView":9,
			"componentType":5126,
			"count":5416,
			"type":"VEC4"
		},
		{
			"bufferView":10,
			"componentType":5123,
			"count":12288,
			"type":"SCALAR"
		}
	],
	"bufferViews":[
		{
			"buffer":0,
			"byteLength":47856,
			"byteOffset":0,
			"target":34962
		},
		{
			"buffer":0,
			"byteLength":31904,
			"byteOffset":47856,
			"target":34962
		},
		{
			"buffer":0,
			"byteLength":47856,
			"byteOffset":79760,
			"target":34962
		},
		{
			"buffer":0,
			"byteLength":63808,
			"byteOffset":127616,
			"target":34962
		},
		{
			"buffer":0,
			"byteLength":30072,
			"byteOffset":191424,
			"target":34963
		},
		{
			"buffer":0,
			"byteLength":1584129,
			"byteOffset":221496
		},
		{
			"buffer":0,
			"byteLength":64992,
			"byteOffset":1805628,
			"target":34962
		},
		{
			"buffer":0,
			"byteLength":43328,
			"byteOffset":1870620,
			"target":34962
		},
		{
			"buffer":0,
			"byteLength":64992,
			"byteOffset":1913948,
			"target":34962
		},
		{
			"buffer":0,
			"byteLength":86656,
			"byteOffset":1978940,
			"target":34962
		},
		{
			"buffer":0,
			"byteLength":24576,
			"byteOffset":2065596,
			"target":34963
		},
		{
			"buffer":0,
			"byteLength":72904,
			"byteOffset":2090172
		}
	],
	"samplers":[
		{
			"magFilter":9729,
			"minFilter":9987
		}
	],
	"buffers":[
		{
			"byteLength":2163076,
			"uri":"data:application/octet-stream;base64,"
		}
	]
}
